<mxfile host="app.diagrams.net" modified="2023-08-08T12:55:29.319Z" agent="Mozilla/5.0 (Macintosh; Intel Mac OS X 10_15_7) AppleWebKit/537.36 (KHTML, like Gecko) Chrome/113.0.0.0 Safari/537.36 Edg/113.0.1774.57" etag="nmA0_SVGHYH9Txj9RyYK" version="21.6.6" type="device" pages="2">
  <diagram id="C5RBs43oDa-KdzZeNtuy" name="Page-1">
    <mxGraphModel dx="1647" dy="904" grid="1" gridSize="10" guides="1" tooltips="1" connect="1" arrows="1" fold="1" page="1" pageScale="1" pageWidth="827" pageHeight="1169" math="0" shadow="0">
      <root>
        <mxCell id="WIyWlLk6GJQsqaUBKTNV-0" />
        <mxCell id="WIyWlLk6GJQsqaUBKTNV-1" parent="WIyWlLk6GJQsqaUBKTNV-0" />
        <mxCell id="cgsoK1HDG1kC3I2KpWL_-0" value="class Online Shopping" style="shape=umlFrame;whiteSpace=wrap;html=1;pointerEvents=0;recursiveResize=0;container=1;collapsible=0;width=160;" parent="WIyWlLk6GJQsqaUBKTNV-1" vertex="1">
          <mxGeometry x="20" y="180" width="1110" height="1210" as="geometry" />
        </mxCell>
        <mxCell id="cgsoK1HDG1kC3I2KpWL_-1" value="Web User" style="swimlane;fontStyle=1;align=center;verticalAlign=top;childLayout=stackLayout;horizontal=1;startSize=26;horizontalStack=0;resizeParent=1;resizeParentMax=0;resizeLast=0;collapsible=1;marginBottom=0;whiteSpace=wrap;html=1;" parent="cgsoK1HDG1kC3I2KpWL_-0" vertex="1">
          <mxGeometry x="50" y="120" width="160" height="138" as="geometry">
            <mxRectangle x="50" y="120" width="100" height="30" as="alternateBounds" />
          </mxGeometry>
        </mxCell>
        <mxCell id="cgsoK1HDG1kC3I2KpWL_-2" value="+ login_id: str&lt;br&gt;" style="text;strokeColor=none;fillColor=none;align=left;verticalAlign=top;spacingLeft=4;spacingRight=4;overflow=hidden;rotatable=0;points=[[0,0.5],[1,0.5]];portConstraint=eastwest;whiteSpace=wrap;html=1;" parent="cgsoK1HDG1kC3I2KpWL_-1" vertex="1">
          <mxGeometry y="26" width="160" height="26" as="geometry" />
        </mxCell>
        <mxCell id="cgsoK1HDG1kC3I2KpWL_-5" value="- password: str" style="text;strokeColor=none;fillColor=none;align=left;verticalAlign=top;spacingLeft=4;spacingRight=4;overflow=hidden;rotatable=0;points=[[0,0.5],[1,0.5]];portConstraint=eastwest;whiteSpace=wrap;html=1;" parent="cgsoK1HDG1kC3I2KpWL_-1" vertex="1">
          <mxGeometry y="52" width="160" height="26" as="geometry" />
        </mxCell>
        <mxCell id="cgsoK1HDG1kC3I2KpWL_-7" value="+ state: UserState" style="text;strokeColor=none;fillColor=none;align=left;verticalAlign=top;spacingLeft=4;spacingRight=4;overflow=hidden;rotatable=0;points=[[0,0.5],[1,0.5]];portConstraint=eastwest;whiteSpace=wrap;html=1;" parent="cgsoK1HDG1kC3I2KpWL_-1" vertex="1">
          <mxGeometry y="78" width="160" height="26" as="geometry" />
        </mxCell>
        <mxCell id="cgsoK1HDG1kC3I2KpWL_-3" value="" style="line;strokeWidth=1;fillColor=none;align=left;verticalAlign=middle;spacingTop=-1;spacingLeft=3;spacingRight=3;rotatable=0;labelPosition=right;points=[];portConstraint=eastwest;strokeColor=inherit;" parent="cgsoK1HDG1kC3I2KpWL_-1" vertex="1">
          <mxGeometry y="104" width="160" height="8" as="geometry" />
        </mxCell>
        <mxCell id="cgsoK1HDG1kC3I2KpWL_-4" value="none" style="text;strokeColor=none;fillColor=none;align=left;verticalAlign=top;spacingLeft=4;spacingRight=4;overflow=hidden;rotatable=0;points=[[0,0.5],[1,0.5]];portConstraint=eastwest;whiteSpace=wrap;html=1;" parent="cgsoK1HDG1kC3I2KpWL_-1" vertex="1">
          <mxGeometry y="112" width="160" height="26" as="geometry" />
        </mxCell>
        <mxCell id="cgsoK1HDG1kC3I2KpWL_-8" value="Customer" style="swimlane;fontStyle=1;align=center;verticalAlign=top;childLayout=stackLayout;horizontal=1;startSize=26;horizontalStack=0;resizeParent=1;resizeParentMax=0;resizeLast=0;collapsible=1;marginBottom=0;whiteSpace=wrap;html=1;" parent="cgsoK1HDG1kC3I2KpWL_-0" vertex="1">
          <mxGeometry x="370" y="120" width="160" height="164" as="geometry" />
        </mxCell>
        <mxCell id="cgsoK1HDG1kC3I2KpWL_-9" value="+ id: str" style="text;strokeColor=none;fillColor=none;align=left;verticalAlign=top;spacingLeft=4;spacingRight=4;overflow=hidden;rotatable=0;points=[[0,0.5],[1,0.5]];portConstraint=eastwest;whiteSpace=wrap;html=1;" parent="cgsoK1HDG1kC3I2KpWL_-8" vertex="1">
          <mxGeometry y="26" width="160" height="26" as="geometry" />
        </mxCell>
        <mxCell id="cgsoK1HDG1kC3I2KpWL_-10" value="+ address: str" style="text;strokeColor=none;fillColor=none;align=left;verticalAlign=top;spacingLeft=4;spacingRight=4;overflow=hidden;rotatable=0;points=[[0,0.5],[1,0.5]];portConstraint=eastwest;whiteSpace=wrap;html=1;" parent="cgsoK1HDG1kC3I2KpWL_-8" vertex="1">
          <mxGeometry y="52" width="160" height="26" as="geometry" />
        </mxCell>
        <mxCell id="cgsoK1HDG1kC3I2KpWL_-11" value="+ Phone: str" style="text;strokeColor=none;fillColor=none;align=left;verticalAlign=top;spacingLeft=4;spacingRight=4;overflow=hidden;rotatable=0;points=[[0,0.5],[1,0.5]];portConstraint=eastwest;whiteSpace=wrap;html=1;" parent="cgsoK1HDG1kC3I2KpWL_-8" vertex="1">
          <mxGeometry y="78" width="160" height="26" as="geometry" />
        </mxCell>
        <mxCell id="cgsoK1HDG1kC3I2KpWL_-14" value="+ email: str" style="text;strokeColor=none;fillColor=none;align=left;verticalAlign=top;spacingLeft=4;spacingRight=4;overflow=hidden;rotatable=0;points=[[0,0.5],[1,0.5]];portConstraint=eastwest;whiteSpace=wrap;html=1;" parent="cgsoK1HDG1kC3I2KpWL_-8" vertex="1">
          <mxGeometry y="104" width="160" height="26" as="geometry" />
        </mxCell>
        <mxCell id="cgsoK1HDG1kC3I2KpWL_-12" value="" style="line;strokeWidth=1;fillColor=none;align=left;verticalAlign=middle;spacingTop=-1;spacingLeft=3;spacingRight=3;rotatable=0;labelPosition=right;points=[];portConstraint=eastwest;strokeColor=inherit;" parent="cgsoK1HDG1kC3I2KpWL_-8" vertex="1">
          <mxGeometry y="130" width="160" height="8" as="geometry" />
        </mxCell>
        <mxCell id="cgsoK1HDG1kC3I2KpWL_-13" value="none" style="text;strokeColor=none;fillColor=none;align=left;verticalAlign=top;spacingLeft=4;spacingRight=4;overflow=hidden;rotatable=0;points=[[0,0.5],[1,0.5]];portConstraint=eastwest;whiteSpace=wrap;html=1;" parent="cgsoK1HDG1kC3I2KpWL_-8" vertex="1">
          <mxGeometry y="138" width="160" height="26" as="geometry" />
        </mxCell>
        <mxCell id="cgsoK1HDG1kC3I2KpWL_-15" value="Account" style="swimlane;fontStyle=1;align=center;verticalAlign=top;childLayout=stackLayout;horizontal=1;startSize=26;horizontalStack=0;resizeParent=1;resizeParentMax=0;resizeLast=0;collapsible=1;marginBottom=0;whiteSpace=wrap;html=1;" parent="cgsoK1HDG1kC3I2KpWL_-0" vertex="1">
          <mxGeometry x="370" y="400" width="160" height="190" as="geometry" />
        </mxCell>
        <mxCell id="cgsoK1HDG1kC3I2KpWL_-16" value="+ id: str" style="text;strokeColor=none;fillColor=none;align=left;verticalAlign=top;spacingLeft=4;spacingRight=4;overflow=hidden;rotatable=0;points=[[0,0.5],[1,0.5]];portConstraint=eastwest;whiteSpace=wrap;html=1;" parent="cgsoK1HDG1kC3I2KpWL_-15" vertex="1">
          <mxGeometry y="26" width="160" height="26" as="geometry" />
        </mxCell>
        <mxCell id="cgsoK1HDG1kC3I2KpWL_-17" value="+ billing_address: str" style="text;strokeColor=none;fillColor=none;align=left;verticalAlign=top;spacingLeft=4;spacingRight=4;overflow=hidden;rotatable=0;points=[[0,0.5],[1,0.5]];portConstraint=eastwest;whiteSpace=wrap;html=1;" parent="cgsoK1HDG1kC3I2KpWL_-15" vertex="1">
          <mxGeometry y="52" width="160" height="26" as="geometry" />
        </mxCell>
        <mxCell id="cgsoK1HDG1kC3I2KpWL_-18" value="+ is_closed: Boolean" style="text;strokeColor=none;fillColor=none;align=left;verticalAlign=top;spacingLeft=4;spacingRight=4;overflow=hidden;rotatable=0;points=[[0,0.5],[1,0.5]];portConstraint=eastwest;whiteSpace=wrap;html=1;" parent="cgsoK1HDG1kC3I2KpWL_-15" vertex="1">
          <mxGeometry y="78" width="160" height="26" as="geometry" />
        </mxCell>
        <mxCell id="cgsoK1HDG1kC3I2KpWL_-19" value="+ open_date: Date" style="text;strokeColor=none;fillColor=none;align=left;verticalAlign=top;spacingLeft=4;spacingRight=4;overflow=hidden;rotatable=0;points=[[0,0.5],[1,0.5]];portConstraint=eastwest;whiteSpace=wrap;html=1;" parent="cgsoK1HDG1kC3I2KpWL_-15" vertex="1">
          <mxGeometry y="104" width="160" height="26" as="geometry" />
        </mxCell>
        <mxCell id="cgsoK1HDG1kC3I2KpWL_-22" value="+ closed_date: Date" style="text;strokeColor=none;fillColor=none;align=left;verticalAlign=top;spacingLeft=4;spacingRight=4;overflow=hidden;rotatable=0;points=[[0,0.5],[1,0.5]];portConstraint=eastwest;whiteSpace=wrap;html=1;" parent="cgsoK1HDG1kC3I2KpWL_-15" vertex="1">
          <mxGeometry y="130" width="160" height="26" as="geometry" />
        </mxCell>
        <mxCell id="cgsoK1HDG1kC3I2KpWL_-20" value="" style="line;strokeWidth=1;fillColor=none;align=left;verticalAlign=middle;spacingTop=-1;spacingLeft=3;spacingRight=3;rotatable=0;labelPosition=right;points=[];portConstraint=eastwest;strokeColor=inherit;" parent="cgsoK1HDG1kC3I2KpWL_-15" vertex="1">
          <mxGeometry y="156" width="160" height="8" as="geometry" />
        </mxCell>
        <mxCell id="cgsoK1HDG1kC3I2KpWL_-21" value="none" style="text;strokeColor=none;fillColor=none;align=left;verticalAlign=top;spacingLeft=4;spacingRight=4;overflow=hidden;rotatable=0;points=[[0,0.5],[1,0.5]];portConstraint=eastwest;whiteSpace=wrap;html=1;" parent="cgsoK1HDG1kC3I2KpWL_-15" vertex="1">
          <mxGeometry y="164" width="160" height="26" as="geometry" />
        </mxCell>
        <mxCell id="cgsoK1HDG1kC3I2KpWL_-79" value="" style="endArrow=open;html=1;endSize=12;startArrow=diamondThin;startSize=14;startFill=1;edgeStyle=orthogonalEdgeStyle;align=left;verticalAlign=bottom;rounded=0;entryX=0.438;entryY=0;entryDx=0;entryDy=0;entryPerimeter=0;" parent="cgsoK1HDG1kC3I2KpWL_-15" target="cgsoK1HDG1kC3I2KpWL_-30" edge="1">
          <mxGeometry x="-1" y="3" relative="1" as="geometry">
            <mxPoint x="50" y="190" as="sourcePoint" />
            <mxPoint x="210" y="190" as="targetPoint" />
            <Array as="points">
              <mxPoint x="50" y="220" />
              <mxPoint x="-90" y="220" />
            </Array>
          </mxGeometry>
        </mxCell>
        <mxCell id="cgsoK1HDG1kC3I2KpWL_-80" value="1" style="edgeLabel;html=1;align=center;verticalAlign=middle;resizable=0;points=[];fontSize=20;" parent="cgsoK1HDG1kC3I2KpWL_-79" vertex="1" connectable="0">
          <mxGeometry x="0.8658" y="1" relative="1" as="geometry">
            <mxPoint x="-21" y="-7" as="offset" />
          </mxGeometry>
        </mxCell>
        <mxCell id="cgsoK1HDG1kC3I2KpWL_-104" value="1" style="edgeLabel;html=1;align=center;verticalAlign=middle;resizable=0;points=[];fontSize=20;" parent="cgsoK1HDG1kC3I2KpWL_-79" vertex="1" connectable="0">
          <mxGeometry x="-0.751" y="-2" relative="1" as="geometry">
            <mxPoint x="12" y="5" as="offset" />
          </mxGeometry>
        </mxCell>
        <mxCell id="cgsoK1HDG1kC3I2KpWL_-23" value="Payment" style="swimlane;fontStyle=1;align=center;verticalAlign=top;childLayout=stackLayout;horizontal=1;startSize=26;horizontalStack=0;resizeParent=1;resizeParentMax=0;resizeLast=0;collapsible=1;marginBottom=0;whiteSpace=wrap;html=1;" parent="cgsoK1HDG1kC3I2KpWL_-0" vertex="1">
          <mxGeometry x="790" y="654" width="160" height="164" as="geometry" />
        </mxCell>
        <mxCell id="cgsoK1HDG1kC3I2KpWL_-24" value="+ id: str" style="text;strokeColor=none;fillColor=none;align=left;verticalAlign=top;spacingLeft=4;spacingRight=4;overflow=hidden;rotatable=0;points=[[0,0.5],[1,0.5]];portConstraint=eastwest;whiteSpace=wrap;html=1;" parent="cgsoK1HDG1kC3I2KpWL_-23" vertex="1">
          <mxGeometry y="26" width="160" height="26" as="geometry" />
        </mxCell>
        <mxCell id="cgsoK1HDG1kC3I2KpWL_-25" value="+ paid_date: Date" style="text;strokeColor=none;fillColor=none;align=left;verticalAlign=top;spacingLeft=4;spacingRight=4;overflow=hidden;rotatable=0;points=[[0,0.5],[1,0.5]];portConstraint=eastwest;whiteSpace=wrap;html=1;" parent="cgsoK1HDG1kC3I2KpWL_-23" vertex="1">
          <mxGeometry y="52" width="160" height="26" as="geometry" />
        </mxCell>
        <mxCell id="cgsoK1HDG1kC3I2KpWL_-26" value="+ total: float" style="text;strokeColor=none;fillColor=none;align=left;verticalAlign=top;spacingLeft=4;spacingRight=4;overflow=hidden;rotatable=0;points=[[0,0.5],[1,0.5]];portConstraint=eastwest;whiteSpace=wrap;html=1;" parent="cgsoK1HDG1kC3I2KpWL_-23" vertex="1">
          <mxGeometry y="78" width="160" height="26" as="geometry" />
        </mxCell>
        <mxCell id="cgsoK1HDG1kC3I2KpWL_-27" value="+ details: str" style="text;strokeColor=none;fillColor=none;align=left;verticalAlign=top;spacingLeft=4;spacingRight=4;overflow=hidden;rotatable=0;points=[[0,0.5],[1,0.5]];portConstraint=eastwest;whiteSpace=wrap;html=1;" parent="cgsoK1HDG1kC3I2KpWL_-23" vertex="1">
          <mxGeometry y="104" width="160" height="26" as="geometry" />
        </mxCell>
        <mxCell id="cgsoK1HDG1kC3I2KpWL_-28" value="" style="line;strokeWidth=1;fillColor=none;align=left;verticalAlign=middle;spacingTop=-1;spacingLeft=3;spacingRight=3;rotatable=0;labelPosition=right;points=[];portConstraint=eastwest;strokeColor=inherit;" parent="cgsoK1HDG1kC3I2KpWL_-23" vertex="1">
          <mxGeometry y="130" width="160" height="8" as="geometry" />
        </mxCell>
        <mxCell id="cgsoK1HDG1kC3I2KpWL_-29" value="none" style="text;strokeColor=none;fillColor=none;align=left;verticalAlign=top;spacingLeft=4;spacingRight=4;overflow=hidden;rotatable=0;points=[[0,0.5],[1,0.5]];portConstraint=eastwest;whiteSpace=wrap;html=1;" parent="cgsoK1HDG1kC3I2KpWL_-23" vertex="1">
          <mxGeometry y="138" width="160" height="26" as="geometry" />
        </mxCell>
        <mxCell id="cgsoK1HDG1kC3I2KpWL_-30" value="Shopping Cart" style="swimlane;fontStyle=1;align=center;verticalAlign=top;childLayout=stackLayout;horizontal=1;startSize=26;horizontalStack=0;resizeParent=1;resizeParentMax=0;resizeLast=0;collapsible=1;marginBottom=0;whiteSpace=wrap;html=1;" parent="cgsoK1HDG1kC3I2KpWL_-0" vertex="1">
          <mxGeometry x="210" y="650" width="160" height="86" as="geometry" />
        </mxCell>
        <mxCell id="cgsoK1HDG1kC3I2KpWL_-31" value="+ created_data: Date" style="text;strokeColor=none;fillColor=none;align=left;verticalAlign=top;spacingLeft=4;spacingRight=4;overflow=hidden;rotatable=0;points=[[0,0.5],[1,0.5]];portConstraint=eastwest;whiteSpace=wrap;html=1;" parent="cgsoK1HDG1kC3I2KpWL_-30" vertex="1">
          <mxGeometry y="26" width="160" height="26" as="geometry" />
        </mxCell>
        <mxCell id="cgsoK1HDG1kC3I2KpWL_-35" value="" style="line;strokeWidth=1;fillColor=none;align=left;verticalAlign=middle;spacingTop=-1;spacingLeft=3;spacingRight=3;rotatable=0;labelPosition=right;points=[];portConstraint=eastwest;strokeColor=inherit;" parent="cgsoK1HDG1kC3I2KpWL_-30" vertex="1">
          <mxGeometry y="52" width="160" height="8" as="geometry" />
        </mxCell>
        <mxCell id="cgsoK1HDG1kC3I2KpWL_-36" value="none" style="text;strokeColor=none;fillColor=none;align=left;verticalAlign=top;spacingLeft=4;spacingRight=4;overflow=hidden;rotatable=0;points=[[0,0.5],[1,0.5]];portConstraint=eastwest;whiteSpace=wrap;html=1;" parent="cgsoK1HDG1kC3I2KpWL_-30" vertex="1">
          <mxGeometry y="60" width="160" height="26" as="geometry" />
        </mxCell>
        <mxCell id="cgsoK1HDG1kC3I2KpWL_-53" value="Product" style="swimlane;fontStyle=1;align=center;verticalAlign=top;childLayout=stackLayout;horizontal=1;startSize=26;horizontalStack=0;resizeParent=1;resizeParentMax=0;resizeLast=0;collapsible=1;marginBottom=0;whiteSpace=wrap;html=1;" parent="cgsoK1HDG1kC3I2KpWL_-0" vertex="1">
          <mxGeometry x="210" y="1030" width="160" height="138" as="geometry">
            <mxRectangle x="50" y="120" width="100" height="30" as="alternateBounds" />
          </mxGeometry>
        </mxCell>
        <mxCell id="cgsoK1HDG1kC3I2KpWL_-54" value="+ id: str" style="text;strokeColor=none;fillColor=none;align=left;verticalAlign=top;spacingLeft=4;spacingRight=4;overflow=hidden;rotatable=0;points=[[0,0.5],[1,0.5]];portConstraint=eastwest;whiteSpace=wrap;html=1;" parent="cgsoK1HDG1kC3I2KpWL_-53" vertex="1">
          <mxGeometry y="26" width="160" height="26" as="geometry" />
        </mxCell>
        <mxCell id="cgsoK1HDG1kC3I2KpWL_-55" value="+ name: str" style="text;strokeColor=none;fillColor=none;align=left;verticalAlign=top;spacingLeft=4;spacingRight=4;overflow=hidden;rotatable=0;points=[[0,0.5],[1,0.5]];portConstraint=eastwest;whiteSpace=wrap;html=1;" parent="cgsoK1HDG1kC3I2KpWL_-53" vertex="1">
          <mxGeometry y="52" width="160" height="26" as="geometry" />
        </mxCell>
        <mxCell id="cgsoK1HDG1kC3I2KpWL_-56" value="+ supplier: str" style="text;strokeColor=none;fillColor=none;align=left;verticalAlign=top;spacingLeft=4;spacingRight=4;overflow=hidden;rotatable=0;points=[[0,0.5],[1,0.5]];portConstraint=eastwest;whiteSpace=wrap;html=1;" parent="cgsoK1HDG1kC3I2KpWL_-53" vertex="1">
          <mxGeometry y="78" width="160" height="26" as="geometry" />
        </mxCell>
        <mxCell id="cgsoK1HDG1kC3I2KpWL_-57" value="" style="line;strokeWidth=1;fillColor=none;align=left;verticalAlign=middle;spacingTop=-1;spacingLeft=3;spacingRight=3;rotatable=0;labelPosition=right;points=[];portConstraint=eastwest;strokeColor=inherit;" parent="cgsoK1HDG1kC3I2KpWL_-53" vertex="1">
          <mxGeometry y="104" width="160" height="8" as="geometry" />
        </mxCell>
        <mxCell id="cgsoK1HDG1kC3I2KpWL_-58" value="none" style="text;strokeColor=none;fillColor=none;align=left;verticalAlign=top;spacingLeft=4;spacingRight=4;overflow=hidden;rotatable=0;points=[[0,0.5],[1,0.5]];portConstraint=eastwest;whiteSpace=wrap;html=1;" parent="cgsoK1HDG1kC3I2KpWL_-53" vertex="1">
          <mxGeometry y="112" width="160" height="26" as="geometry" />
        </mxCell>
        <mxCell id="cgsoK1HDG1kC3I2KpWL_-46" value="LineItem" style="swimlane;fontStyle=1;align=center;verticalAlign=top;childLayout=stackLayout;horizontal=1;startSize=26;horizontalStack=0;resizeParent=1;resizeParentMax=0;resizeLast=0;collapsible=1;marginBottom=0;whiteSpace=wrap;html=1;" parent="cgsoK1HDG1kC3I2KpWL_-0" vertex="1">
          <mxGeometry x="210" y="830" width="160" height="112" as="geometry" />
        </mxCell>
        <mxCell id="cgsoK1HDG1kC3I2KpWL_-47" value="+ quantity: int" style="text;strokeColor=none;fillColor=none;align=left;verticalAlign=top;spacingLeft=4;spacingRight=4;overflow=hidden;rotatable=0;points=[[0,0.5],[1,0.5]];portConstraint=eastwest;whiteSpace=wrap;html=1;" parent="cgsoK1HDG1kC3I2KpWL_-46" vertex="1">
          <mxGeometry y="26" width="160" height="26" as="geometry" />
        </mxCell>
        <mxCell id="cgsoK1HDG1kC3I2KpWL_-48" value="+ price: float" style="text;strokeColor=none;fillColor=none;align=left;verticalAlign=top;spacingLeft=4;spacingRight=4;overflow=hidden;rotatable=0;points=[[0,0.5],[1,0.5]];portConstraint=eastwest;whiteSpace=wrap;html=1;" parent="cgsoK1HDG1kC3I2KpWL_-46" vertex="1">
          <mxGeometry y="52" width="160" height="26" as="geometry" />
        </mxCell>
        <mxCell id="cgsoK1HDG1kC3I2KpWL_-51" value="" style="line;strokeWidth=1;fillColor=none;align=left;verticalAlign=middle;spacingTop=-1;spacingLeft=3;spacingRight=3;rotatable=0;labelPosition=right;points=[];portConstraint=eastwest;strokeColor=inherit;" parent="cgsoK1HDG1kC3I2KpWL_-46" vertex="1">
          <mxGeometry y="78" width="160" height="8" as="geometry" />
        </mxCell>
        <mxCell id="cgsoK1HDG1kC3I2KpWL_-52" value="none" style="text;strokeColor=none;fillColor=none;align=left;verticalAlign=top;spacingLeft=4;spacingRight=4;overflow=hidden;rotatable=0;points=[[0,0.5],[1,0.5]];portConstraint=eastwest;whiteSpace=wrap;html=1;" parent="cgsoK1HDG1kC3I2KpWL_-46" vertex="1">
          <mxGeometry y="86" width="160" height="26" as="geometry" />
        </mxCell>
        <mxCell id="cgsoK1HDG1kC3I2KpWL_-60" value="&amp;lt;&amp;lt;enumeration&amp;gt;&amp;gt;&lt;br&gt;&lt;b&gt;UserState&lt;/b&gt;" style="swimlane;fontStyle=0;align=center;verticalAlign=top;childLayout=stackLayout;horizontal=1;startSize=40;horizontalStack=0;resizeParent=1;resizeParentMax=0;resizeLast=0;collapsible=0;marginBottom=0;html=1;whiteSpace=wrap;" parent="cgsoK1HDG1kC3I2KpWL_-0" vertex="1">
          <mxGeometry x="930" y="50" width="140" height="160" as="geometry" />
        </mxCell>
        <mxCell id="cgsoK1HDG1kC3I2KpWL_-61" value="New" style="text;html=1;strokeColor=none;fillColor=none;align=left;verticalAlign=middle;spacingLeft=4;spacingRight=4;overflow=hidden;rotatable=0;points=[[0,0.5],[1,0.5]];portConstraint=eastwest;whiteSpace=wrap;" parent="cgsoK1HDG1kC3I2KpWL_-60" vertex="1">
          <mxGeometry y="40" width="140" height="30" as="geometry" />
        </mxCell>
        <mxCell id="cgsoK1HDG1kC3I2KpWL_-64" value="Active" style="text;html=1;strokeColor=none;fillColor=none;align=left;verticalAlign=middle;spacingLeft=4;spacingRight=4;overflow=hidden;rotatable=0;points=[[0,0.5],[1,0.5]];portConstraint=eastwest;whiteSpace=wrap;" parent="cgsoK1HDG1kC3I2KpWL_-60" vertex="1">
          <mxGeometry y="70" width="140" height="30" as="geometry" />
        </mxCell>
        <mxCell id="cgsoK1HDG1kC3I2KpWL_-65" value="Blocked" style="text;html=1;strokeColor=none;fillColor=none;align=left;verticalAlign=middle;spacingLeft=4;spacingRight=4;overflow=hidden;rotatable=0;points=[[0,0.5],[1,0.5]];portConstraint=eastwest;whiteSpace=wrap;" parent="cgsoK1HDG1kC3I2KpWL_-60" vertex="1">
          <mxGeometry y="100" width="140" height="30" as="geometry" />
        </mxCell>
        <mxCell id="cgsoK1HDG1kC3I2KpWL_-66" value="Banned" style="text;html=1;strokeColor=none;fillColor=none;align=left;verticalAlign=middle;spacingLeft=4;spacingRight=4;overflow=hidden;rotatable=0;points=[[0,0.5],[1,0.5]];portConstraint=eastwest;whiteSpace=wrap;" parent="cgsoK1HDG1kC3I2KpWL_-60" vertex="1">
          <mxGeometry y="130" width="140" height="30" as="geometry" />
        </mxCell>
        <mxCell id="cgsoK1HDG1kC3I2KpWL_-67" value="&amp;lt;&amp;lt;enumeration&amp;gt;&amp;gt;&lt;br&gt;&lt;b&gt;OrderStatus&lt;/b&gt;" style="swimlane;fontStyle=0;align=center;verticalAlign=top;childLayout=stackLayout;horizontal=1;startSize=40;horizontalStack=0;resizeParent=1;resizeParentMax=0;resizeLast=0;collapsible=0;marginBottom=0;html=1;whiteSpace=wrap;" parent="cgsoK1HDG1kC3I2KpWL_-0" vertex="1">
          <mxGeometry x="930" y="250" width="140" height="190" as="geometry" />
        </mxCell>
        <mxCell id="cgsoK1HDG1kC3I2KpWL_-68" value="New" style="text;html=1;strokeColor=none;fillColor=none;align=left;verticalAlign=middle;spacingLeft=4;spacingRight=4;overflow=hidden;rotatable=0;points=[[0,0.5],[1,0.5]];portConstraint=eastwest;whiteSpace=wrap;" parent="cgsoK1HDG1kC3I2KpWL_-67" vertex="1">
          <mxGeometry y="40" width="140" height="30" as="geometry" />
        </mxCell>
        <mxCell id="cgsoK1HDG1kC3I2KpWL_-69" value="Hold" style="text;html=1;strokeColor=none;fillColor=none;align=left;verticalAlign=middle;spacingLeft=4;spacingRight=4;overflow=hidden;rotatable=0;points=[[0,0.5],[1,0.5]];portConstraint=eastwest;whiteSpace=wrap;" parent="cgsoK1HDG1kC3I2KpWL_-67" vertex="1">
          <mxGeometry y="70" width="140" height="30" as="geometry" />
        </mxCell>
        <mxCell id="cgsoK1HDG1kC3I2KpWL_-70" value="Shipped" style="text;html=1;strokeColor=none;fillColor=none;align=left;verticalAlign=middle;spacingLeft=4;spacingRight=4;overflow=hidden;rotatable=0;points=[[0,0.5],[1,0.5]];portConstraint=eastwest;whiteSpace=wrap;" parent="cgsoK1HDG1kC3I2KpWL_-67" vertex="1">
          <mxGeometry y="100" width="140" height="30" as="geometry" />
        </mxCell>
        <mxCell id="cgsoK1HDG1kC3I2KpWL_-71" value="Delivered" style="text;html=1;strokeColor=none;fillColor=none;align=left;verticalAlign=middle;spacingLeft=4;spacingRight=4;overflow=hidden;rotatable=0;points=[[0,0.5],[1,0.5]];portConstraint=eastwest;whiteSpace=wrap;" parent="cgsoK1HDG1kC3I2KpWL_-67" vertex="1">
          <mxGeometry y="130" width="140" height="30" as="geometry" />
        </mxCell>
        <mxCell id="cgsoK1HDG1kC3I2KpWL_-72" value="Closed" style="text;html=1;strokeColor=none;fillColor=none;align=left;verticalAlign=middle;spacingLeft=4;spacingRight=4;overflow=hidden;rotatable=0;points=[[0,0.5],[1,0.5]];portConstraint=eastwest;whiteSpace=wrap;" parent="cgsoK1HDG1kC3I2KpWL_-67" vertex="1">
          <mxGeometry y="160" width="140" height="30" as="geometry" />
        </mxCell>
        <mxCell id="cgsoK1HDG1kC3I2KpWL_-73" value="" style="endArrow=none;startArrow=none;endFill=0;startFill=0;endSize=8;html=1;verticalAlign=bottom;labelBackgroundColor=none;strokeWidth=3;rounded=0;" parent="cgsoK1HDG1kC3I2KpWL_-0" edge="1">
          <mxGeometry width="160" relative="1" as="geometry">
            <mxPoint x="210" y="188.5" as="sourcePoint" />
            <mxPoint x="370" y="188.5" as="targetPoint" />
          </mxGeometry>
        </mxCell>
        <mxCell id="cgsoK1HDG1kC3I2KpWL_-74" value="0..1" style="edgeLabel;html=1;align=center;verticalAlign=middle;resizable=0;points=[];fontSize=19;" parent="cgsoK1HDG1kC3I2KpWL_-73" vertex="1" connectable="0">
          <mxGeometry x="-0.8562" y="4" relative="1" as="geometry">
            <mxPoint x="8" y="-20" as="offset" />
          </mxGeometry>
        </mxCell>
        <mxCell id="cgsoK1HDG1kC3I2KpWL_-75" value="1" style="edgeLabel;html=1;align=center;verticalAlign=middle;resizable=0;points=[];fontSize=20;" parent="cgsoK1HDG1kC3I2KpWL_-73" vertex="1" connectable="0">
          <mxGeometry x="0.8563" y="1" relative="1" as="geometry">
            <mxPoint x="-9" y="-21" as="offset" />
          </mxGeometry>
        </mxCell>
        <mxCell id="cgsoK1HDG1kC3I2KpWL_-37" value="Order" style="swimlane;fontStyle=1;align=center;verticalAlign=top;childLayout=stackLayout;horizontal=1;startSize=26;horizontalStack=0;resizeParent=1;resizeParentMax=0;resizeLast=0;collapsible=1;marginBottom=0;whiteSpace=wrap;html=1;" parent="cgsoK1HDG1kC3I2KpWL_-0" vertex="1">
          <mxGeometry x="500" y="654" width="160" height="216" as="geometry" />
        </mxCell>
        <mxCell id="cgsoK1HDG1kC3I2KpWL_-38" value="+ number: int" style="text;strokeColor=none;fillColor=none;align=left;verticalAlign=top;spacingLeft=4;spacingRight=4;overflow=hidden;rotatable=0;points=[[0,0.5],[1,0.5]];portConstraint=eastwest;whiteSpace=wrap;html=1;" parent="cgsoK1HDG1kC3I2KpWL_-37" vertex="1">
          <mxGeometry y="26" width="160" height="26" as="geometry" />
        </mxCell>
        <mxCell id="cgsoK1HDG1kC3I2KpWL_-39" value="+ order_date: Date" style="text;strokeColor=none;fillColor=none;align=left;verticalAlign=top;spacingLeft=4;spacingRight=4;overflow=hidden;rotatable=0;points=[[0,0.5],[1,0.5]];portConstraint=eastwest;whiteSpace=wrap;html=1;" parent="cgsoK1HDG1kC3I2KpWL_-37" vertex="1">
          <mxGeometry y="52" width="160" height="26" as="geometry" />
        </mxCell>
        <mxCell id="cgsoK1HDG1kC3I2KpWL_-40" value="+ shipped_date: Date" style="text;strokeColor=none;fillColor=none;align=left;verticalAlign=top;spacingLeft=4;spacingRight=4;overflow=hidden;rotatable=0;points=[[0,0.5],[1,0.5]];portConstraint=eastwest;whiteSpace=wrap;html=1;" parent="cgsoK1HDG1kC3I2KpWL_-37" vertex="1">
          <mxGeometry y="78" width="160" height="26" as="geometry" />
        </mxCell>
        <mxCell id="cgsoK1HDG1kC3I2KpWL_-41" value="+ ship_to: str" style="text;strokeColor=none;fillColor=none;align=left;verticalAlign=top;spacingLeft=4;spacingRight=4;overflow=hidden;rotatable=0;points=[[0,0.5],[1,0.5]];portConstraint=eastwest;whiteSpace=wrap;html=1;" parent="cgsoK1HDG1kC3I2KpWL_-37" vertex="1">
          <mxGeometry y="104" width="160" height="26" as="geometry" />
        </mxCell>
        <mxCell id="cgsoK1HDG1kC3I2KpWL_-42" value="+ Status: OrderStatus" style="text;strokeColor=none;fillColor=none;align=left;verticalAlign=top;spacingLeft=4;spacingRight=4;overflow=hidden;rotatable=0;points=[[0,0.5],[1,0.5]];portConstraint=eastwest;whiteSpace=wrap;html=1;" parent="cgsoK1HDG1kC3I2KpWL_-37" vertex="1">
          <mxGeometry y="130" width="160" height="26" as="geometry" />
        </mxCell>
        <mxCell id="cgsoK1HDG1kC3I2KpWL_-45" value="+ total: float" style="text;strokeColor=none;fillColor=none;align=left;verticalAlign=top;spacingLeft=4;spacingRight=4;overflow=hidden;rotatable=0;points=[[0,0.5],[1,0.5]];portConstraint=eastwest;whiteSpace=wrap;html=1;" parent="cgsoK1HDG1kC3I2KpWL_-37" vertex="1">
          <mxGeometry y="156" width="160" height="26" as="geometry" />
        </mxCell>
        <mxCell id="cgsoK1HDG1kC3I2KpWL_-43" value="" style="line;strokeWidth=1;fillColor=none;align=left;verticalAlign=middle;spacingTop=-1;spacingLeft=3;spacingRight=3;rotatable=0;labelPosition=right;points=[];portConstraint=eastwest;strokeColor=inherit;" parent="cgsoK1HDG1kC3I2KpWL_-37" vertex="1">
          <mxGeometry y="182" width="160" height="8" as="geometry" />
        </mxCell>
        <mxCell id="cgsoK1HDG1kC3I2KpWL_-44" value="none" style="text;strokeColor=none;fillColor=none;align=left;verticalAlign=top;spacingLeft=4;spacingRight=4;overflow=hidden;rotatable=0;points=[[0,0.5],[1,0.5]];portConstraint=eastwest;whiteSpace=wrap;html=1;" parent="cgsoK1HDG1kC3I2KpWL_-37" vertex="1">
          <mxGeometry y="190" width="160" height="26" as="geometry" />
        </mxCell>
        <mxCell id="cgsoK1HDG1kC3I2KpWL_-77" value="" style="endArrow=open;html=1;endSize=12;startArrow=diamondThin;startSize=14;startFill=1;edgeStyle=orthogonalEdgeStyle;align=left;verticalAlign=bottom;rounded=0;entryX=0.5;entryY=0;entryDx=0;entryDy=0;exitX=0.503;exitY=1;exitDx=0;exitDy=0;exitPerimeter=0;" parent="cgsoK1HDG1kC3I2KpWL_-0" source="cgsoK1HDG1kC3I2KpWL_-13" target="cgsoK1HDG1kC3I2KpWL_-15" edge="1">
          <mxGeometry x="-1" y="3" relative="1" as="geometry">
            <mxPoint x="310" y="520" as="sourcePoint" />
            <mxPoint x="470" y="520" as="targetPoint" />
          </mxGeometry>
        </mxCell>
        <mxCell id="cgsoK1HDG1kC3I2KpWL_-78" value="1" style="edgeLabel;html=1;align=center;verticalAlign=middle;resizable=0;points=[];fontSize=20;" parent="cgsoK1HDG1kC3I2KpWL_-77" vertex="1" connectable="0">
          <mxGeometry x="0.7105" relative="1" as="geometry">
            <mxPoint x="10" y="-3" as="offset" />
          </mxGeometry>
        </mxCell>
        <mxCell id="cgsoK1HDG1kC3I2KpWL_-103" value="&lt;font style=&quot;font-size: 20px;&quot;&gt;1&lt;/font&gt;" style="edgeLabel;html=1;align=center;verticalAlign=middle;resizable=0;points=[];" parent="cgsoK1HDG1kC3I2KpWL_-77" vertex="1" connectable="0">
          <mxGeometry x="-0.5202" y="1" relative="1" as="geometry">
            <mxPoint x="19" as="offset" />
          </mxGeometry>
        </mxCell>
        <mxCell id="cgsoK1HDG1kC3I2KpWL_-81" value="" style="endArrow=open;html=1;endSize=12;startArrow=diamondThin;startSize=14;startFill=1;edgeStyle=orthogonalEdgeStyle;align=left;verticalAlign=bottom;rounded=0;exitX=0.625;exitY=1;exitDx=0;exitDy=0;exitPerimeter=0;entryX=0.5;entryY=0;entryDx=0;entryDy=0;" parent="cgsoK1HDG1kC3I2KpWL_-0" source="cgsoK1HDG1kC3I2KpWL_-21" target="cgsoK1HDG1kC3I2KpWL_-37" edge="1">
          <mxGeometry x="-1" y="3" relative="1" as="geometry">
            <mxPoint x="310" y="640" as="sourcePoint" />
            <mxPoint x="470" y="640" as="targetPoint" />
          </mxGeometry>
        </mxCell>
        <mxCell id="cgsoK1HDG1kC3I2KpWL_-82" value="*" style="edgeLabel;html=1;align=center;verticalAlign=middle;resizable=0;points=[];fontSize=42;" parent="cgsoK1HDG1kC3I2KpWL_-81" vertex="1" connectable="0">
          <mxGeometry x="0.7328" y="2" relative="1" as="geometry">
            <mxPoint x="18" y="-11" as="offset" />
          </mxGeometry>
        </mxCell>
        <mxCell id="cgsoK1HDG1kC3I2KpWL_-105" value="1" style="edgeLabel;html=1;align=center;verticalAlign=middle;resizable=0;points=[];fontSize=20;" parent="cgsoK1HDG1kC3I2KpWL_-81" vertex="1" connectable="0">
          <mxGeometry x="-0.6207" y="-1" relative="1" as="geometry">
            <mxPoint x="-11" y="-3" as="offset" />
          </mxGeometry>
        </mxCell>
        <mxCell id="cgsoK1HDG1kC3I2KpWL_-88" value="" style="endArrow=none;startArrow=none;endFill=0;startFill=0;endSize=8;html=1;verticalAlign=bottom;labelBackgroundColor=none;strokeWidth=3;rounded=0;exitX=0.442;exitY=0.994;exitDx=0;exitDy=0;exitPerimeter=0;entryX=0;entryY=0.5;entryDx=0;entryDy=0;" parent="cgsoK1HDG1kC3I2KpWL_-0" source="cgsoK1HDG1kC3I2KpWL_-4" target="cgsoK1HDG1kC3I2KpWL_-31" edge="1">
          <mxGeometry width="160" relative="1" as="geometry">
            <mxPoint x="120" y="330" as="sourcePoint" />
            <mxPoint x="280" y="330" as="targetPoint" />
            <Array as="points">
              <mxPoint x="121" y="690" />
            </Array>
          </mxGeometry>
        </mxCell>
        <mxCell id="cgsoK1HDG1kC3I2KpWL_-89" value="0..1" style="edgeLabel;html=1;align=center;verticalAlign=middle;resizable=0;points=[];fontSize=20;" parent="cgsoK1HDG1kC3I2KpWL_-88" vertex="1" connectable="0">
          <mxGeometry x="0.9181" y="-1" relative="1" as="geometry">
            <mxPoint x="-9" y="-20" as="offset" />
          </mxGeometry>
        </mxCell>
        <mxCell id="cgsoK1HDG1kC3I2KpWL_-90" value="1" style="edgeLabel;html=1;align=center;verticalAlign=middle;resizable=0;points=[];fontSize=20;" parent="cgsoK1HDG1kC3I2KpWL_-88" vertex="1" connectable="0">
          <mxGeometry x="-0.9441" y="-1" relative="1" as="geometry">
            <mxPoint x="20" as="offset" />
          </mxGeometry>
        </mxCell>
        <mxCell id="cgsoK1HDG1kC3I2KpWL_-91" value="" style="endArrow=none;startArrow=none;endFill=0;startFill=0;endSize=8;html=1;verticalAlign=bottom;labelBackgroundColor=none;strokeWidth=3;rounded=0;exitX=1.018;exitY=0.766;exitDx=0;exitDy=0;exitPerimeter=0;entryX=-0.016;entryY=0.75;entryDx=0;entryDy=0;entryPerimeter=0;" parent="cgsoK1HDG1kC3I2KpWL_-0" source="cgsoK1HDG1kC3I2KpWL_-38" target="cgsoK1HDG1kC3I2KpWL_-24" edge="1">
          <mxGeometry width="160" relative="1" as="geometry">
            <mxPoint x="680" y="700" as="sourcePoint" />
            <mxPoint x="770" y="700" as="targetPoint" />
          </mxGeometry>
        </mxCell>
        <mxCell id="cgsoK1HDG1kC3I2KpWL_-92" value="*" style="edgeLabel;html=1;align=center;verticalAlign=middle;resizable=0;points=[];fontSize=42;" parent="cgsoK1HDG1kC3I2KpWL_-91" vertex="1" connectable="0">
          <mxGeometry x="0.8391" relative="1" as="geometry">
            <mxPoint x="-7" y="32" as="offset" />
          </mxGeometry>
        </mxCell>
        <mxCell id="cgsoK1HDG1kC3I2KpWL_-93" value="1" style="edgeLabel;html=1;align=center;verticalAlign=middle;resizable=0;points=[];fontSize=20;" parent="cgsoK1HDG1kC3I2KpWL_-91" vertex="1" connectable="0">
          <mxGeometry x="-0.8201" y="1" relative="1" as="geometry">
            <mxPoint y="21" as="offset" />
          </mxGeometry>
        </mxCell>
        <mxCell id="cgsoK1HDG1kC3I2KpWL_-94" value="" style="endArrow=none;startArrow=none;endFill=0;startFill=0;endSize=8;html=1;verticalAlign=bottom;labelBackgroundColor=none;strokeWidth=3;rounded=0;exitX=0.463;exitY=0.974;exitDx=0;exitDy=0;exitPerimeter=0;entryX=0.46;entryY=-0.012;entryDx=0;entryDy=0;entryPerimeter=0;" parent="cgsoK1HDG1kC3I2KpWL_-0" source="cgsoK1HDG1kC3I2KpWL_-36" target="cgsoK1HDG1kC3I2KpWL_-46" edge="1">
          <mxGeometry width="160" relative="1" as="geometry">
            <mxPoint x="280" y="780" as="sourcePoint" />
            <mxPoint x="440" y="780" as="targetPoint" />
          </mxGeometry>
        </mxCell>
        <mxCell id="cgsoK1HDG1kC3I2KpWL_-95" value="*" style="edgeLabel;html=1;align=center;verticalAlign=middle;resizable=0;points=[];fontSize=30;" parent="cgsoK1HDG1kC3I2KpWL_-94" vertex="1" connectable="0">
          <mxGeometry x="0.7681" relative="1" as="geometry">
            <mxPoint x="16" y="-8" as="offset" />
          </mxGeometry>
        </mxCell>
        <mxCell id="cgsoK1HDG1kC3I2KpWL_-96" value="1" style="edgeLabel;html=1;align=center;verticalAlign=middle;resizable=0;points=[];fontSize=20;" parent="cgsoK1HDG1kC3I2KpWL_-94" vertex="1" connectable="0">
          <mxGeometry x="-0.7143" y="2" relative="1" as="geometry">
            <mxPoint x="14" as="offset" />
          </mxGeometry>
        </mxCell>
        <mxCell id="cgsoK1HDG1kC3I2KpWL_-97" value="" style="endArrow=none;startArrow=none;endFill=0;startFill=0;endSize=8;html=1;verticalAlign=bottom;labelBackgroundColor=none;strokeWidth=3;rounded=0;exitX=1;exitY=0.5;exitDx=0;exitDy=0;entryX=0;entryY=0.5;entryDx=0;entryDy=0;" parent="cgsoK1HDG1kC3I2KpWL_-0" source="cgsoK1HDG1kC3I2KpWL_-48" target="cgsoK1HDG1kC3I2KpWL_-39" edge="1">
          <mxGeometry width="160" relative="1" as="geometry">
            <mxPoint x="394" y="900" as="sourcePoint" />
            <mxPoint x="554" y="900" as="targetPoint" />
            <Array as="points">
              <mxPoint x="450" y="895" />
              <mxPoint x="450" y="720" />
            </Array>
          </mxGeometry>
        </mxCell>
        <mxCell id="cgsoK1HDG1kC3I2KpWL_-98" value="*" style="edgeLabel;html=1;align=center;verticalAlign=middle;resizable=0;points=[];fontSize=42;" parent="cgsoK1HDG1kC3I2KpWL_-97" vertex="1" connectable="0">
          <mxGeometry x="-0.8694" y="1" relative="1" as="geometry">
            <mxPoint x="4" y="35" as="offset" />
          </mxGeometry>
        </mxCell>
        <mxCell id="cgsoK1HDG1kC3I2KpWL_-99" value="1" style="edgeLabel;html=1;align=center;verticalAlign=middle;resizable=0;points=[];fontSize=20;" parent="cgsoK1HDG1kC3I2KpWL_-97" vertex="1" connectable="0">
          <mxGeometry x="0.8852" y="4" relative="1" as="geometry">
            <mxPoint x="-2" y="-15" as="offset" />
          </mxGeometry>
        </mxCell>
        <mxCell id="cgsoK1HDG1kC3I2KpWL_-100" value="" style="endArrow=none;startArrow=none;endFill=0;startFill=0;endSize=8;html=1;verticalAlign=bottom;labelBackgroundColor=none;strokeWidth=3;rounded=0;exitX=0.463;exitY=0.996;exitDx=0;exitDy=0;exitPerimeter=0;entryX=0.47;entryY=0.004;entryDx=0;entryDy=0;entryPerimeter=0;" parent="cgsoK1HDG1kC3I2KpWL_-0" source="cgsoK1HDG1kC3I2KpWL_-52" target="cgsoK1HDG1kC3I2KpWL_-53" edge="1">
          <mxGeometry width="160" relative="1" as="geometry">
            <mxPoint x="280" y="988.31" as="sourcePoint" />
            <mxPoint x="440" y="988.31" as="targetPoint" />
          </mxGeometry>
        </mxCell>
        <mxCell id="cgsoK1HDG1kC3I2KpWL_-101" value="1" style="edgeLabel;html=1;align=center;verticalAlign=middle;resizable=0;points=[];fontSize=20;" parent="cgsoK1HDG1kC3I2KpWL_-100" vertex="1" connectable="0">
          <mxGeometry x="0.7892" relative="1" as="geometry">
            <mxPoint x="15" y="-11" as="offset" />
          </mxGeometry>
        </mxCell>
        <mxCell id="cgsoK1HDG1kC3I2KpWL_-102" value="*" style="edgeLabel;html=1;align=center;verticalAlign=middle;resizable=0;points=[];fontSize=42;" parent="cgsoK1HDG1kC3I2KpWL_-100" vertex="1" connectable="0">
          <mxGeometry x="-0.7037" y="2" relative="1" as="geometry">
            <mxPoint x="14" y="15" as="offset" />
          </mxGeometry>
        </mxCell>
      </root>
    </mxGraphModel>
  </diagram>
  <diagram id="epWZdFiBeihvn9IxlM3i" name="Page-2">
    <mxGraphModel dx="1647" dy="904" grid="1" gridSize="10" guides="1" tooltips="1" connect="1" arrows="1" fold="1" page="1" pageScale="1" pageWidth="827" pageHeight="1169" math="0" shadow="0">
      <root>
        <mxCell id="0" />
        <mxCell id="1" parent="0" />
        <mxCell id="XDTxOkXHPxbw9eg6SM8z-5" value="" style="edgeStyle=orthogonalEdgeStyle;rounded=0;orthogonalLoop=1;jettySize=auto;html=1;endArrow=diamondThin;endFill=1;" edge="1" parent="1" source="hgB43ULH11JJlI_X9Duu-1" target="XDTxOkXHPxbw9eg6SM8z-1">
          <mxGeometry relative="1" as="geometry" />
        </mxCell>
        <mxCell id="hgB43ULH11JJlI_X9Duu-1" value="Customr" style="swimlane;fontStyle=1;align=center;verticalAlign=top;childLayout=stackLayout;horizontal=1;startSize=26;horizontalStack=0;resizeParent=1;resizeParentMax=0;resizeLast=0;collapsible=1;marginBottom=0;whiteSpace=wrap;html=1;" vertex="1" parent="1">
          <mxGeometry x="60" y="200" width="160" height="144" as="geometry" />
        </mxCell>
        <mxCell id="hgB43ULH11JJlI_X9Duu-2" value="+ id: str&lt;br&gt;+ address: str&lt;br&gt;+ Phone: int&lt;br&gt;+ Email: str" style="text;strokeColor=none;fillColor=none;align=left;verticalAlign=top;spacingLeft=4;spacingRight=4;overflow=hidden;rotatable=0;points=[[0,0.5],[1,0.5]];portConstraint=eastwest;whiteSpace=wrap;html=1;" vertex="1" parent="hgB43ULH11JJlI_X9Duu-1">
          <mxGeometry y="26" width="160" height="84" as="geometry" />
        </mxCell>
        <mxCell id="hgB43ULH11JJlI_X9Duu-3" value="" style="line;strokeWidth=1;fillColor=none;align=left;verticalAlign=middle;spacingTop=-1;spacingLeft=3;spacingRight=3;rotatable=0;labelPosition=right;points=[];portConstraint=eastwest;strokeColor=inherit;" vertex="1" parent="hgB43ULH11JJlI_X9Duu-1">
          <mxGeometry y="110" width="160" height="8" as="geometry" />
        </mxCell>
        <mxCell id="hgB43ULH11JJlI_X9Duu-4" value="+ method(type): type" style="text;strokeColor=none;fillColor=none;align=left;verticalAlign=top;spacingLeft=4;spacingRight=4;overflow=hidden;rotatable=0;points=[[0,0.5],[1,0.5]];portConstraint=eastwest;whiteSpace=wrap;html=1;" vertex="1" parent="hgB43ULH11JJlI_X9Duu-1">
          <mxGeometry y="118" width="160" height="26" as="geometry" />
        </mxCell>
        <mxCell id="XDTxOkXHPxbw9eg6SM8z-1" value="Customr" style="swimlane;fontStyle=1;align=center;verticalAlign=top;childLayout=stackLayout;horizontal=1;startSize=26;horizontalStack=0;resizeParent=1;resizeParentMax=0;resizeLast=0;collapsible=1;marginBottom=0;whiteSpace=wrap;html=1;" vertex="1" parent="1">
          <mxGeometry x="300" y="200" width="160" height="144" as="geometry" />
        </mxCell>
        <mxCell id="XDTxOkXHPxbw9eg6SM8z-2" value="+ id: str&lt;br&gt;+ address: str&lt;br&gt;+ Phone: int&lt;br&gt;+ Email: str" style="text;strokeColor=none;fillColor=none;align=left;verticalAlign=top;spacingLeft=4;spacingRight=4;overflow=hidden;rotatable=0;points=[[0,0.5],[1,0.5]];portConstraint=eastwest;whiteSpace=wrap;html=1;" vertex="1" parent="XDTxOkXHPxbw9eg6SM8z-1">
          <mxGeometry y="26" width="160" height="84" as="geometry" />
        </mxCell>
        <mxCell id="XDTxOkXHPxbw9eg6SM8z-3" value="" style="line;strokeWidth=1;fillColor=none;align=left;verticalAlign=middle;spacingTop=-1;spacingLeft=3;spacingRight=3;rotatable=0;labelPosition=right;points=[];portConstraint=eastwest;strokeColor=inherit;" vertex="1" parent="XDTxOkXHPxbw9eg6SM8z-1">
          <mxGeometry y="110" width="160" height="8" as="geometry" />
        </mxCell>
        <mxCell id="XDTxOkXHPxbw9eg6SM8z-4" value="+ method(type): type" style="text;strokeColor=none;fillColor=none;align=left;verticalAlign=top;spacingLeft=4;spacingRight=4;overflow=hidden;rotatable=0;points=[[0,0.5],[1,0.5]];portConstraint=eastwest;whiteSpace=wrap;html=1;" vertex="1" parent="XDTxOkXHPxbw9eg6SM8z-1">
          <mxGeometry y="118" width="160" height="26" as="geometry" />
        </mxCell>
      </root>
    </mxGraphModel>
  </diagram>
</mxfile>
